<?xml version="1.0" encoding="utf-8"?>
<!-- Generator: Adobe Illustrator 27.0.0, SVG Export Plug-In . SVG Version: 6.00 Build 0)  -->
<svg version="1.1" id="Layer_1" xmlns="http://www.w3.org/2000/svg" xmlns:xlink="http://www.w3.org/1999/xlink" x="0px" y="0px"
	 viewBox="0 0 2529.7 2384.6" style="enable-background:new 0 0 2529.7 2384.6;" xml:space="preserve">
<style type="text/css">
	.st0{fill:#BADFFD;}
	.st1{fill:#226654;}
	.st2{fill:#40907A;}
	.st3{fill:#96CE58;}
	.st4{fill:#F7C545;}
	.st5{fill:#F19934;}
	.st6{fill:#95C5E5;}
	.st7{fill:#0877BD;}
	.st8{fill:#095A98;}
</style>
<g>
	<path class="st0" d="M1830.5,944.9c0.6,2.4,27,87.9,27,185.6c-0.3,42.3-4.5,84.7-13.2,126.2c-50.1,243.1-254.8,402.5-488.2,456.8
		c-179.3,41.6-372.5,35.6-555.1,31.7c-99.4-2.1-207.1-19.9-298.9,28.9c30.3-16.1,148-78.6,182.1-84.7
		c34.2-6,995.6,39.7,1066.3-449.4c5.1-35.4,6.5-71.4,4.5-107.2c-1-17.9-2.9-35.7-5.6-53.3c-1.4-8.8-2.9-17.5-4.7-26
		c-0.9-4.2-1.8-8.5-2.9-12.6l-1.5-6l-0.8-2.8c-0.2-0.7-0.6-2-0.6-1.9L1830.5,944.9z"/>
	<path class="st0" d="M535.6,1430.1c8-24.9,18.4-48.9,29.7-72.5c11.2-23.6,23.7-46.6,37-69.2c26.8-45.1,57.4-88.1,91.6-128.6
		c34.4-40.3,72.4-78.3,114.9-111.7c21-17,43.6-32.2,66.6-46.9c23.5-13.9,47.6-27.4,73.1-38.2c12.5-5.9,25.7-10.4,38.7-15.3l4.9-1.8
		l5-1.5l10-3.1l10-3c3.3-1,6.7-2.1,10.1-2.8l20.5-4.7c3.3-0.7,7-1.6,10.1-2.3l9.3-1.9l37.3-7.3l149.2-29.7
		c49.8-10,99.6-20.3,149.6-30.7l18.8-3.8c6.3-1.3,12.5-2.8,18.8-4l37.7-7.9l75.8-16.3c-21.4,15.1-44,28.1-66.9,40.5
		c-22.9,12.3-46.3,23.9-69.9,34.7c-47.3,21.7-95.7,40.7-144.7,57.8c-49,17.3-98.7,31.8-148.8,45.1l-37.7,9.5l-9.4,2.3
		c-3.2,0.8-5.7,1.5-8.6,2.3l-16.8,4.5c-5.6,1.4-11.1,3.6-16.7,5.3l-8.3,2.7l-4.2,1.4l-4.1,1.6c-10.9,4.3-22,8.1-32.6,13.2
		c-5.4,2.4-10.8,4.6-16.2,7.2l-15.9,7.9l-8,3.9l-7.8,4.3l-15.7,8.6c-20.6,12.2-41.1,24.7-60.9,38.7c-39.9,27.5-78,58.7-115.1,91.7
		c-37,33.2-72.6,68.5-107.6,105.3C603.6,1352.5,569.6,1390.6,535.6,1430.1z"/>
	<path class="st1" d="M2228,287l222.6,106.2c-444.3,109.7-921.4,768.9-1077,803.8c-487.3,109.3-920.4,472.2-920.4,472.2
		C842,1214,1273,1177.6,1373.7,1081.7C1474.3,985.8,2056.7,233.2,2228,287z"/>
	<path class="st2" d="M1920.3,1314.5c-43.8-14.2-83.2-30.8-118.5-49.2c-104.6-54.3-174.2-124.1-220.5-194
		c-28.9-43.6-48.6-87.3-62.2-127.2c-1.2-3.6-2.4-7.2-3.5-10.8c-8.1-25.6-14-50.6-18.3-74.3c-13.6-75.7-10.2-141.4-7.2-170.5
		c42.9,1.1,88.7,13.2,137.7,15.7c-0.1,0.6-6.6,35.4-0.4,94.5c3,29.3,9.2,63,20.8,98.1c7.5,22.8,16.7,44.5,27.6,65.1
		c29.3,55.6,70.8,102.8,124.1,141.5c36.4,26.4,78.4,48.9,125.8,67.2C1941.3,1243,1920.3,1314.5,1920.3,1314.5z"/>
	<path class="st3" d="M1868.2,1531.3L1868.2,1531.3c-17.8,48.2-40.4,90.9-67.2,128.5c-26.3-28.4-73.7-76.5-146-139.5
		c-50.6-44.1-113.4-95.4-189.7-152.4c-54.3-40.6-99.3-93-134.1-155.9c-11.3-20.3-21.5-41.8-30.6-64.3
		c-26.3-64.6-43.7-137.9-51.8-218.8c-0.7-6.4-1.2-12.9-1.8-19.5c-8.2-103.3,0.2-193.6,6.6-241.1c42-0.6,87.9,0.5,138.4,3.1
		c-4.7,31.4-15.5,117.8-8.6,218.1c3.8,55.3,12.9,114.7,31.4,171.5c11.1,34.3,25.7,67.6,44.4,98.5c22.7,37.3,51.6,70.9,88.3,98.3
		c75.1,56.1,137.8,107,189.4,151.6C1793.6,1458.3,1836.9,1499.6,1868.2,1531.3z"/>
	<path class="st4" d="M1737,1732.6c-43,40-93.1,71.8-149.1,96.2c-33.7-29.5-93.8-79-193.6-151.8c-37.7-27.4-81-58.2-130.7-92.6
		c-106.2-73.3-179.3-156.3-230.4-241.4c-16.8-28-31.2-56.1-43.6-84.2c-35.2-79.6-54.5-159-66.9-231.9c-8-47.1-13.1-91.5-17.7-131.6
		c-6.4-55.4-12.5-108.3-23.7-141.1c47.2-28,98.2-49.1,159.6-63.5c19.4,52.3,26.6,114.8,34.7,184.9c3.4,29.8,7,60.9,11.7,92.7
		c11,74.9,28.1,154,64,231.1c11.2,24.1,24.3,48,39.5,71.6v0c39.6,61,94.1,119.4,170.3,172c85.6,59,153.4,108.3,206.8,149
		C1664.2,1665.3,1713.9,1710.1,1737,1732.6z"/>
	<path class="st5" d="M1396,1882.2L1396,1882.2l12.7-2.5c-78.1-46.5-151.4-101.8-219.1-165.4c-48.3-45.2-93.8-94.6-136.2-148
		c-43.4-54.6-83.7-113.4-120.7-175.9c-16.1-27.3-31.6-55.3-46.4-84c-15.5-30.1-30.3-60.9-44.3-92.4c-16.6-37.2-30.2-71.8-41.5-103.8
		C744.1,949.6,748,856.8,748,856.8s-109.7,77-130.4,137.6c0,0-3,44.9,63.3,233.1c5.2,12.2,10.7,24.9,16.6,38.4
		c17.9,40.5,37,79.9,57.3,118.3c12.9,24.5,26.4,48.6,40.2,72.2c40.3,68.6,84.4,133.2,132,193.3c21.7,27.3,46.1,54,71.5,79.3
		c73.8,73.5,155.4,134.9,198.5,165.7h0L1396,1882.2z"/>
	<path class="st6" d="M864.2,1888.7c-78,1.4-148.3,5.1-211.7,10.4c-2.3-48.3-14.2-102.3-35.3-161c-18-49.9-42.6-103.1-73.6-158.9
		c-0.6-1.1-1.2-2.2-1.8-3.3c-10.7-19.1-22.2-38.6-34.4-58.3c-44.1-71.2-88.7-130.9-118.3-168.3c0,0,58.1-111.6,94.4-155.5
		c0,0,43.5,73.1,96.7,164.6c20.5,35.3,42.6,73.5,64.5,111.7c8.9,15.5,17.8,31,26.5,46.3c56.5,99.3,106.9,190.2,118.6,218.9
		c0,0.1,0.1,0.1,0.1,0.2C812.2,1790.6,844.8,1842,864.2,1888.7z"/>
	<path class="st7" d="M336.3,1457.4c101.5,102.2,145,225.8,163.4,318.8c16.1,81.5,13,139.6,13,139.6l-141.2,31
		c0-2.6,60.9-147.6-97.4-351.6L336.3,1457.4z"/>
	<polygon class="st8" points="245.4,1799.3 79,2100.3 286.5,1985.4 	"/>
</g>
</svg>
